<svg xmlns="http://www.w3.org/2000/svg" viewBox="0 0 188.6 36.78"><defs><style>.cls-1{fill:#0032a5;}.cls-2,.cls-3{fill:#4c4948;}.cls-3{fill-rule:evenodd;}</style></defs><title>资源 8</title><g id="图层_2" data-name="图层 2"><g id="图层_1-2" data-name="图层 1"><path class="cls-1" d="M4.17,23.83c0-.24,0-.49,0-.73l0-.18v-.09a2.06,2.06,0,1,0-4.11,0,5.46,5.46,0,0,0,5.13,5.45A9.8,9.8,0,0,1,4.17,23.83Z"/><path class="cls-1" d="M7.41,29.79a25.27,25.27,0,0,0,2.9,1.32c1,.39,2,.74,3,1a46.29,46.29,0,0,0,6.13,1.46,54.81,54.81,0,0,0,12.47.65,64,64,0,0,0,12.29-2q3-.78,6-1.81c.49-.18,1-.34,1.48-.53l1.48-.56c.51-.19,1-.38,1.53-.55l1.54-.53a69,69,0,0,1,12.69-2.88,62.31,62.31,0,0,1,13-.3,55.46,55.46,0,0,1,12.69,2.6,47.14,47.14,0,0,1,6,2.44,32.64,32.64,0,0,1,5.5,3.31,29.16,29.16,0,0,0-2.88-1.36c-1-.42-2-.8-3-1.15a55.21,55.21,0,0,0-6.06-1.75,62.7,62.7,0,0,0-12.42-1.61,71.67,71.67,0,0,0-24.56,3.73l-1.48.5c-.49.17-1,.34-1.48.53l-1.5.55c-.51.19-1,.36-1.54.53q-3.07,1-6.26,1.78A59.22,59.22,0,0,1,32,36.78a48.78,48.78,0,0,1-12.88-1.64A42.93,42.93,0,0,1,13,33,28.48,28.48,0,0,1,7.41,29.79Z"/><polygon class="cls-2" points="2.76 0 7.66 0 4.9 19.61 0 19.61 2.76 0"/><path class="cls-2" d="M9.58,8h7.35l-.51,3.68H9.06Z"/><path class="cls-2" d="M25.08,16a7.55,7.55,0,0,0,1.63-.15,3.62,3.62,0,0,0,1.08-.4,1.81,1.81,0,0,0,.62-.61,2.28,2.28,0,0,0,.25-.79,1.51,1.51,0,0,0-.73-1.53,11.73,11.73,0,0,0-3.06-1.32A20,20,0,0,1,23,10.46,6.3,6.3,0,0,1,21.33,9.4a4.14,4.14,0,0,1-1.08-1.54,4.23,4.23,0,0,1-.19-2.21,5.64,5.64,0,0,1,.86-2.35,6.27,6.27,0,0,1,1.75-1.77A8.54,8.54,0,0,1,25.19.39,11.88,11.88,0,0,1,28.37,0,12.29,12.29,0,0,1,34.23,1.3l-1.8,3.34a10.9,10.9,0,0,0-1.8-.72,8.09,8.09,0,0,0-2.47-.31A5.35,5.35,0,0,0,25.73,4a1.66,1.66,0,0,0-.91,1.29,1.29,1.29,0,0,0,.15.87,2.12,2.12,0,0,0,.66.64,6.68,6.68,0,0,0,1,.51c.41.16.84.31,1.34.48a26.06,26.06,0,0,1,2.62,1.07,6,6,0,0,1,1.78,1.23,3.73,3.73,0,0,1,.94,1.65,5.87,5.87,0,0,1,.06,2.29,5.6,5.6,0,0,1-2.58,4.08,11.42,11.42,0,0,1-6.26,1.47,17.53,17.53,0,0,1-2.41-.16,14.52,14.52,0,0,1-1.88-.36,13.13,13.13,0,0,1-1.38-.46c-.38-.17-.69-.32-.95-.46l1.77-3.36a10.44,10.44,0,0,0,2.14.83A12.24,12.24,0,0,0,25.08,16Z"/><path class="cls-3" d="M40.8,4.26a2.71,2.71,0,0,0,1-1.8A2,2,0,0,0,41.3.66a2.59,2.59,0,0,0-3.44,0,2.71,2.71,0,0,0-1,1.8,2,2,0,0,0,.48,1.8A2.59,2.59,0,0,0,40.8,4.26Z"/><polygon class="cls-3" points="35.08 19.61 38.76 19.61 40.69 5.88 37.01 5.88 35.08 19.61"/><path class="cls-3" d="M77.52,4.26a2.67,2.67,0,0,0,1-1.8A2,2,0,0,0,78,.66a2.59,2.59,0,0,0-3.44,0,2.71,2.71,0,0,0-1,1.8,2.06,2.06,0,0,0,.48,1.8A2.59,2.59,0,0,0,77.52,4.26Z"/><polygon class="cls-3" points="71.8 19.61 75.48 19.61 77.41 5.88 73.73 5.88 71.8 19.61"/><path class="cls-3" d="M52.15,22.9a5.28,5.28,0,0,0,2.38-4.15l1.7-12c-.35-.11-.76-.21-1.21-.31s-.93-.19-1.43-.26L52.06,6c-.52,0-1-.06-1.52-.06a9.52,9.52,0,0,0-3.18.5,7.89,7.89,0,0,0-2.53,1.43A7.36,7.36,0,0,0,43.06,10a6.86,6.86,0,0,0-.85,2.51c-.29,2.11,0,4.11.85,5.29a5.14,5.14,0,0,0,4.35,1.75A7.45,7.45,0,0,0,49,19.45,8.49,8.49,0,0,0,50.39,19l0,.16c-.08.74-.37.92-.93,1.41a3.89,3.89,0,0,1-2.59.72,11.27,11.27,0,0,1-4.32-.77l-1.17,3.21a15.58,15.58,0,0,0,2.38.57,15,15,0,0,0,2.61.22A9.23,9.23,0,0,0,52.15,22.9Zm-3.5-6.56q-2.77,0-2.3-3.43a5,5,0,0,1,1.18-2.69A3.27,3.27,0,0,1,50.1,9.15c.37,0,.69,0,1,0s.51.06.7.1l-.91,6.5a5.18,5.18,0,0,1-1,.38A4.59,4.59,0,0,1,48.65,16.34Z"/><path class="cls-3" d="M103.75,22.89a5.22,5.22,0,0,0,2.38-4.13l1.69-12c-.35-.11-.76-.21-1.21-.31s-.93-.18-1.43-.26-1-.13-1.52-.17-1-.07-1.51-.07a9.46,9.46,0,0,0-3.17.5,7.85,7.85,0,0,0-2.51,1.42,7.33,7.33,0,0,0-1.77,2.22,6.63,6.63,0,0,0-.84,2.49c-.3,2.1,0,4.1.84,5.27A5.12,5.12,0,0,0,99,19.6a6.81,6.81,0,0,0,1.54-.15A8.3,8.3,0,0,0,102,19l0,.15c-.08.73-.37.92-.93,1.41a3.92,3.92,0,0,1-2.58.71,11.39,11.39,0,0,1-4.3-.76L93,23.71a15.33,15.33,0,0,0,2.36.57A15.07,15.07,0,0,0,98,24.5,9.15,9.15,0,0,0,103.75,22.89Zm-3.48-6.53c-1.84,0-2.61-1.14-2.29-3.41a5,5,0,0,1,1.17-2.69,3.29,3.29,0,0,1,2.56-1.06,8.72,8.72,0,0,1,1,.05,5.75,5.75,0,0,1,.7.09l-.91,6.47a5.22,5.22,0,0,1-1,.39A4.5,4.5,0,0,1,100.27,16.36Z"/><path class="cls-2" d="M65,5.89a7.42,7.42,0,0,0-7.12,6.24h0l-1.05,7.48H61l1.1-7.83h0a2.54,2.54,0,0,1,2.44-2.14,1.82,1.82,0,0,1,1.85,2.14l-1.1,7.83h4.09l1.05-7.48h0A5.29,5.29,0,0,0,65,5.89Z"/><path class="cls-2" d="M86.1,5.89A7.41,7.41,0,0,0,79,12.13h0l-1.06,7.48H82l1.1-7.83h0a2.55,2.55,0,0,1,2.45-2.14,1.82,1.82,0,0,1,1.84,2.14l-1.1,7.83h4.1l1-7.48h0A5.3,5.3,0,0,0,86.1,5.89Z"/><path class="cls-2" d="M114,21l-1.32,1.72L115,24.21l1.32-1.73a12.43,12.43,0,0,0,2.46-5.76h-2.9A9,9,0,0,1,114,21Z"/><path class="cls-2" d="M132.69,16.72h-2.9a10.09,10.09,0,0,0,.84,5.76l.84,1.72,2.67-1.52L133.31,21A7.32,7.32,0,0,1,132.69,16.72Z"/><polygon class="cls-2" points="127.89 3.23 128.66 2.58 126.51 0 124.15 2.01 125.17 3.23 115.58 3.23 115.17 6.12 136.35 6.12 136.76 3.23 127.89 3.23"/><path class="cls-2" d="M132.92,6.51v0H130v0a3.43,3.43,0,0,1-1.09,2l.4.4h-7.91l.51-.4a2.59,2.59,0,0,1-.54-2v0h-2.9v0a5.15,5.15,0,0,0,.21,2.35h-3.92l-.4,2.89h9.24l-.19,1.34h-9.24L113.78,16H123l-1.19,8.45h2.9L125.93,16h9l.41-2.88h-9l.19-1.34h9l.4-2.89H132A6.18,6.18,0,0,0,132.92,6.51Z"/><path class="cls-2" d="M170.42,16.48h-2.9v.05a8.14,8.14,0,0,0,.74,4.8l2.66-1.55a5.53,5.53,0,0,1-.5-3.26Z"/><path class="cls-2" d="M176.25,16.48h-2.89v.05a8.13,8.13,0,0,0,.73,4.8l2.66-1.55a5.61,5.61,0,0,1-.49-3.26Z"/><path class="cls-2" d="M181.58,21.37a10.58,10.58,0,0,0,2.07-4.89h-2.9a7.22,7.22,0,0,1-1.43,3.38L178,21.6H164.32l-.4,2.89h21.17l.41-2.89h-4.1Z"/><path class="cls-2" d="M171.07,4.38h1.08a5.84,5.84,0,0,0,.9,3.23l2.55-1.75a3.36,3.36,0,0,1-.51-1.49h2.24l.41-2.88h-5.88L172,.62h-2.9l-.14,1a8.1,8.1,0,0,1-2.66,4.85l1.8,2A11.66,11.66,0,0,0,171.07,4.38Z"/><path class="cls-2" d="M188.6,1.49h-5.88l.12-.87H180l-.15,1a8.09,8.09,0,0,1-2.65,4.85l1.07,1.18h-2.61a9.59,9.59,0,0,0-6,2.43,6.24,6.24,0,0,1-4.09,1.59h0l-.4,2.89a9.23,9.23,0,0,0,3.5-.71l-.2,1.41h14.76l.2-1.41a7.77,7.77,0,0,0,3.29.71h0l.4-2.89a4.71,4.71,0,0,1-3.65-1.59,6.94,6.94,0,0,0-3.82-2.24,11.84,11.84,0,0,0,2.32-3.48H183a5.85,5.85,0,0,0,.91,3.23l2.54-1.75a3.63,3.63,0,0,1-.51-1.48h2.25Zm-7.5,10.65.23.25H171.08l.3-.25a6.29,6.29,0,0,1,3.9-1.59h2.37A4.69,4.69,0,0,1,181.1,12.14Z"/><path class="cls-2" d="M145.27,4.38h1.08a5.93,5.93,0,0,0,.9,3.23l2.55-1.75a3.36,3.36,0,0,1-.51-1.48h2.24l.41-2.89h-5.87l.12-.87h-2.9l-.14,1a8.14,8.14,0,0,1-2.65,4.85l1.79,2A11.78,11.78,0,0,0,145.27,4.38Z"/><path class="cls-2" d="M157.05.62h-2.9l-.14,1a8.1,8.1,0,0,1-2.66,4.85l1.8,2a11.91,11.91,0,0,0,3-4.12h1.08a5.84,5.84,0,0,0,.9,3.23l2.55-1.74a3.44,3.44,0,0,1-.51-1.49h2.24l.41-2.88h-5.88Z"/><path class="cls-2" d="M155.3,11.92h0a9.56,9.56,0,0,0,6.26-2.43l-1.76-2A6.3,6.3,0,0,1,155.71,9H140.07l-.41,2.88H149l-.1.75h-7.11l-.41,2.89h7.11l-.11.81H139l-.4,2.88h9.46a5.41,5.41,0,0,0,5.58,5.25h1.41l.4-2.89h-1.41a3,3,0,0,1-3-2.36h8.72l.4-2.89h-8.92l.12-.81h7.11l.41-2.88h-7.12l.11-.76Z"/><polygon class="cls-1" points="156.2 21.62 155.79 24.5 158.94 24.5 158.97 24.26 156.7 21.62 156.2 21.62"/></g></g></svg>